<svg version="1.1" id="Layer_1" xmlns="http://www.w3.org/2000/svg" xmlns:xlink="http://www.w3.org/1999/xlink" x="0px" y="0px"
	 width="100%" viewBox="0 0 744 197" enable-background="new 0 0 744 197" xml:space="preserve">
<path fill="#FEFFFF" opacity="1.000000" stroke="none" 
	d="
M713.000000,198.000000 
	C475.396332,198.000000 238.292648,198.000000 1.094487,198.000000 
	C1.094487,132.413879 1.094487,66.827591 1.094487,1.120648 
	C248.999954,1.120648 496.999969,1.120648 744.995667,1.120648 
	C744.995667,66.707314 744.995667,132.353653 744.993530,198.000000 
	C734.494202,198.000000 723.997131,198.000000 713.000000,198.000000 
M488.558899,88.960556 
	C488.920837,89.028603 489.282776,89.096642 489.659790,90.079758 
	C489.659790,101.971268 489.659790,113.862778 489.659790,125.654221 
	C494.371094,125.654221 498.257904,125.654221 502.061157,125.654221 
	C502.061157,106.936981 502.061157,88.578392 502.061157,69.990036 
	C497.173279,69.990036 492.673950,70.204987 488.206787,69.918556 
	C484.933411,69.708672 483.666199,70.965614 482.673676,74.017464 
	C478.811127,85.894279 474.602509,97.658546 470.565338,109.341232 
	C466.367126,97.103539 462.213928,84.842979 457.885620,72.644531 
	C457.498993,71.554878 456.009094,70.161339 454.975342,70.113060 
	C449.553223,69.859871 444.113007,69.994682 438.597717,69.994682 
	C438.597717,88.976715 438.597717,107.353249 438.597717,125.635223 
	C442.516754,125.635223 446.083862,125.635223 450.017609,125.635223 
	C450.017609,112.330811 450.017609,99.396156 450.017609,86.461494 
	C454.837219,98.416786 459.337830,110.350647 463.217102,122.483177 
	C464.778900,127.367821 468.175995,125.634171 471.169495,126.022774 
	C474.035736,126.394852 475.591370,125.477982 476.566467,122.470215 
	C480.201782,111.257416 484.166656,100.151466 488.558899,88.960556 
M55.364761,126.008057 
	C58.718609,126.628098 59.082363,124.804588 59.060116,122.013390 
	C58.947365,107.865883 59.008316,93.716980 59.008377,79.568573 
	C59.008392,76.466171 59.008381,73.363777 59.008381,70.418007 
	C54.328415,70.418007 50.290291,70.418007 45.889622,70.418007 
	C45.889622,77.767204 45.889622,84.692986 45.889622,91.692322 
	C38.118870,91.692322 30.729504,91.692322 22.835836,91.692322 
	C22.835836,84.340935 22.835836,77.279099 22.835836,70.336319 
	C18.418673,70.336319 14.515652,70.336319 10.646227,70.336319 
	C10.646227,89.044609 10.646227,107.405373 10.646227,125.663589 
	C14.955045,125.663589 18.861601,125.663589 23.237904,125.663589 
	C23.237904,117.920525 23.237904,110.514488 23.237904,103.298264 
	C31.117203,103.298264 38.510357,103.298264 46.231636,103.298264 
	C46.231636,110.960182 46.231636,118.232109 46.231636,126.008339 
	C49.184654,126.008339 51.799797,126.008339 55.364761,126.008057 
M240.500687,85.563911 
	C233.859695,83.879623 228.134445,85.429077 222.888504,91.668137 
	C222.888504,82.716484 222.888504,75.007645 222.888504,67.265518 
	C218.635498,67.265518 214.880600,67.265518 211.014725,67.265518 
	C211.014725,86.900902 211.014725,106.266975 211.014725,125.744705 
	C215.097290,125.744705 218.843307,125.744705 223.002136,125.744705 
	C223.002136,121.039574 222.899658,116.576828 223.032074,112.121056 
	C223.154953,107.985687 223.167358,103.792206 223.901642,99.746506 
	C224.534470,96.259880 227.193863,94.564621 230.910568,94.731880 
	C234.742630,94.904320 236.015717,97.384659 236.412979,100.630287 
	C236.634384,102.439087 236.662689,104.278824 236.670807,106.105103 
	C236.699524,112.560226 236.681976,119.015564 236.681976,125.733742 
	C241.033096,125.733742 244.936020,125.733742 248.815552,125.733742 
	C248.815552,115.551468 249.132111,105.600563 248.671646,95.685745 
	C248.465408,91.245087 245.831894,87.551384 240.500687,85.563911 
M511.797668,100.488914 
	C508.278290,118.641708 521.348999,130.991226 539.282532,126.457237 
	C549.841980,123.787567 555.470215,115.415001 554.745422,103.454826 
	C554.152527,93.672295 547.146545,86.223724 537.493896,85.113548 
	C524.225830,83.587547 515.379700,88.640182 511.797668,100.488914 
M662.247498,109.085876 
	C664.952393,122.698639 674.115417,128.895844 688.509399,126.847458 
	C697.529358,125.563835 703.899963,119.180092 705.554199,109.767448 
	C707.217529,100.302773 703.068604,91.016998 695.479187,87.218895 
	C678.724243,78.833870 661.772156,89.526665 662.247498,109.085876 
M562.538940,121.239380 
	C562.611084,122.707886 562.683167,124.176392 562.756653,125.672783 
	C566.958923,125.672783 570.852173,125.672783 575.007507,125.672783 
	C575.007507,123.694542 575.007385,122.049530 575.007568,120.404518 
	C575.008057,115.075226 574.623108,109.706581 575.161560,104.432205 
	C575.458923,101.519783 576.771240,98.304565 578.659241,96.117989 
	C579.739746,94.866585 583.778259,94.378975 584.915710,95.362450 
	C586.908508,97.085564 588.634705,100.142906 588.807373,102.751480 
	C589.308960,110.330803 588.985107,117.964752 588.985107,125.764709 
	C593.395813,125.764709 597.302795,125.764709 601.176147,125.764709 
	C601.176147,115.924812 601.812134,106.273804 600.994934,96.747444 
	C600.198547,87.463669 593.858093,83.263985 584.847473,85.327797 
	C581.827209,86.019577 579.235779,88.567039 576.430908,90.237022 
	C576.071594,90.450989 575.606750,90.487808 575.148438,90.618797 
	C575.015259,89.031029 574.896362,87.614075 574.778137,86.205170 
	C570.588318,86.205170 566.807678,86.205170 563.114868,86.205170 
	C562.895081,86.717728 562.653748,87.019157 562.652283,87.321709 
	C562.600830,98.311798 562.571716,109.301994 562.538940,121.239380 
M313.440369,84.985085 
	C310.971741,85.249725 308.451263,85.282341 306.043732,85.820427 
	C297.123138,87.814209 296.993439,88.095566 298.687012,96.962502 
	C314.606262,92.101974 318.147919,92.613808 317.929230,99.732964 
	C313.027649,100.586876 308.025238,101.073158 303.248810,102.383369 
	C296.567749,104.216042 293.117920,110.237312 294.189148,117.067856 
	C295.193970,123.474701 299.895386,127.455780 307.005829,126.866585 
	C310.758026,126.555656 314.385223,124.735771 317.942322,123.636299 
	C321.153839,128.574295 326.144226,124.850807 330.646759,126.168968 
	C330.646759,116.770805 331.146179,108.114883 330.515656,99.542084 
	C329.787994,89.648483 324.647705,85.477531 313.440369,84.985085 
M407.756866,105.409164 
	C407.619904,91.302002 400.564941,84.269150 387.295807,85.012230 
	C377.544189,85.558319 370.070831,93.510925 369.178253,104.291611 
	C368.217346,115.897766 373.802124,124.628296 383.869965,126.543037 
	C387.413177,127.216896 391.186707,127.103249 394.814758,126.824509 
	C403.923492,126.124725 404.738190,124.955589 403.639343,115.653610 
	C389.838348,120.153137 383.090027,118.383751 382.447937,109.756592 
	C389.616394,109.756592 396.764618,109.675652 403.909271,109.799194 
	C406.514709,109.844246 408.197815,109.361153 407.756866,105.409164 
M147.010971,111.498451 
	C147.010971,109.001289 147.011856,106.504135 147.010818,104.006973 
	C147.004822,89.394440 140.913818,83.818954 126.295006,85.115631 
	C124.649910,85.261559 123.018761,85.661583 121.404610,86.043045 
	C113.795219,87.841339 112.792480,89.782883 115.465431,97.422157 
	C127.575256,91.448784 134.005386,92.164742 134.865448,99.699974 
	C130.138641,100.494118 125.351891,101.061615 120.685905,102.147820 
	C115.876953,103.267303 112.265968,106.036728 111.051651,111.173500 
	C109.697006,116.903931 111.429657,122.253731 115.513710,124.962051 
	C120.227348,128.087875 127.126381,127.801720 131.908157,124.255745 
	C132.795670,123.597610 133.615784,122.848602 134.666504,121.975822 
	C135.040390,123.566521 135.315674,124.737785 135.542572,125.703110 
	C139.524170,125.703110 143.114548,125.703110 147.010986,125.703110 
	C147.010986,121.099129 147.010986,116.796501 147.010971,111.498451 
M104.400459,94.288826 
	C102.468826,92.059471 100.938133,89.152031 98.530174,87.728256 
	C91.383919,83.502838 83.833870,83.625114 76.881432,88.209282 
	C68.427826,93.783257 67.024315,102.377846 68.326111,111.589973 
	C69.422531,119.348732 74.854385,125.140724 82.421570,126.520454 
	C86.125687,127.195831 90.055428,127.108421 93.835838,126.795624 
	C102.747574,126.058250 103.858894,124.439514 102.398094,115.580040 
	C88.847313,120.218529 81.626793,118.362312 81.306244,109.623154 
	C89.539062,109.623154 97.759949,109.623154 107.097267,109.623154 
	C106.249191,104.278618 105.510155,99.621254 104.400459,94.288826 
M196.373566,116.089874 
	C195.691711,109.166771 195.009857,102.243668 194.283646,94.870140 
	C198.240341,94.870140 200.847412,94.870140 203.605377,94.870140 
	C203.605377,91.784973 203.605377,89.070015 203.605377,85.823456 
	C200.580490,85.823456 197.855972,85.823456 194.836395,85.823456 
	C194.836395,81.664009 194.836395,78.038811 194.836395,73.885353 
	C190.350876,75.153725 186.293472,76.301025 182.264847,77.440201 
	C182.125229,80.506821 182.007217,83.098885 181.888397,85.708649 
	C179.608673,85.936264 177.712936,86.125542 175.940109,86.302544 
	C175.940109,89.400063 175.940109,92.103119 175.940109,94.868057 
	C178.119797,94.984993 179.894211,95.080193 182.090683,95.198036 
	C182.090683,98.441750 181.982437,101.404350 182.114975,104.356148 
	C182.337646,109.315552 182.098618,114.406502 183.175400,119.189621 
	C184.628159,125.642899 191.685547,128.443405 199.958755,126.833763 
	C206.286209,125.602669 203.244995,120.742691 203.791016,117.272629 
	C203.825150,117.055786 203.484283,116.779938 203.625427,116.990631 
	C201.189209,116.873322 199.096756,116.772560 196.373566,116.089874 
M653.134094,126.919418 
	C660.806030,126.320282 657.190125,120.617256 658.010010,116.741043 
	C651.466553,117.758003 649.433777,116.855072 649.138000,112.128510 
	C648.788696,106.546600 649.056030,100.926102 649.056030,94.828262 
	C652.322388,94.828262 655.054810,94.828262 657.625977,94.828262 
	C657.625977,91.586990 657.625977,88.860146 657.625977,85.818115 
	C654.633850,85.818115 652.025146,85.818115 648.942200,85.818115 
	C648.942200,81.765587 648.942200,78.032875 648.942200,74.217003 
	C637.181213,76.542839 637.181213,76.542839 635.684570,85.844635 
	C633.989502,85.938721 632.225952,86.036606 630.243164,86.146660 
	C630.243164,89.140160 630.243164,91.872246 630.243164,94.850410 
	C632.235657,94.967094 633.995605,95.070145 636.261658,95.202843 
	C636.261658,100.912445 636.122681,106.366943 636.290222,111.812012 
	C636.653748,123.623970 640.384399,127.098343 653.134094,126.919418 
M274.056885,115.834312 
	C269.350525,111.629494 267.750641,105.148476 270.686188,100.154701 
	C275.315582,92.279488 282.381958,94.593605 289.465912,96.535187 
	C289.465912,93.890877 289.768951,91.515831 289.349457,89.276115 
	C289.107483,87.984131 287.871124,86.098099 286.787231,85.867653 
	C278.195984,84.041122 269.830139,84.239189 262.874542,90.629173 
	C256.552673,96.436974 254.552292,106.709221 257.896790,115.078758 
	C260.909576,122.618164 267.785553,126.929718 276.927856,127.012146 
	C289.112915,127.121994 290.969055,125.334999 288.916779,116.190865 
	C284.115021,116.190865 279.455750,116.190865 274.056885,115.834312 
M168.998978,104.499878 
	C168.998978,92.079887 168.998978,79.659897 168.998978,67.300003 
	C164.562164,67.300003 160.804062,67.300003 157.063980,67.300003 
	C157.063980,86.968536 157.063980,106.335724 157.063980,125.698608 
	C161.190811,125.698608 164.934662,125.698608 168.998978,125.698608 
	C168.998978,118.768669 168.998978,112.134232 168.998978,104.499878 
M722.237732,85.980286 
	C719.323792,85.980286 716.409912,85.980286 713.510559,85.980286 
	C713.510559,99.702248 713.510559,112.623337 713.510559,125.739517 
	C717.683105,125.739517 721.579041,125.739517 725.928101,125.739517 
	C725.928101,119.178940 725.802795,112.886360 725.959290,106.600800 
	C726.163208,98.410141 730.190979,95.249779 738.157043,96.720490 
	C738.566833,96.796135 739.040100,96.527916 739.458557,96.425949 
	C739.458557,92.692139 739.458557,89.096146 739.458557,85.449074 
	C733.596863,83.875031 729.633423,86.274513 727.150696,90.078415 
	C725.704529,88.601967 724.421387,87.291939 722.237732,85.980286 
M357.685730,96.899620 
	C360.401245,96.659134 363.116791,96.418648 366.142181,96.150726 
	C366.142181,92.873863 366.142181,89.162689 366.142181,85.564194 
	C360.260773,83.618233 356.509216,86.575317 353.189362,90.890244 
	C352.772980,88.846893 352.491058,87.463379 352.246063,86.261047 
	C348.071167,86.261047 344.297882,86.261047 340.415741,86.261047 
	C340.415741,99.590347 340.415741,112.641060 340.415741,125.646805 
	C344.643066,125.646805 348.535309,125.646805 352.762665,125.646805 
	C352.762665,119.141998 352.293549,112.950653 352.949097,106.880768 
	C353.308044,103.557091 355.566833,100.438591 357.685730,96.899620 
M623.313660,118.453003 
	C623.313660,107.720276 623.313660,96.987549 623.313660,86.317413 
	C618.773865,86.317413 615.031616,86.317413 611.355957,86.317413 
	C611.355957,99.688507 611.355957,112.740440 611.355957,125.684471 
	C615.475220,125.684471 619.234619,125.684471 623.313843,125.684471 
	C623.313843,123.394913 623.313843,121.417946 623.313660,118.453003 
M623.819397,70.625977 
	C621.825500,66.876251 618.291748,66.187042 614.899536,67.348465 
	C612.951904,68.015305 610.684265,70.414894 610.340515,72.350525 
	C609.995056,74.295807 611.307983,77.770569 612.881592,78.530617 
	C615.207153,79.653816 619.058105,80.003876 621.041565,78.752571 
	C622.878174,77.594002 623.114624,73.898949 623.819397,70.625977 
z"/>
<path fill="#1C7BF2" opacity="1.000000" stroke="none" 
	d="
M488.007812,89.005417 
	C484.166656,100.151466 480.201782,111.257416 476.566467,122.470215 
	C475.591370,125.477982 474.035736,126.394852 471.169495,126.022774 
	C468.175995,125.634171 464.778900,127.367821 463.217102,122.483177 
	C459.337830,110.350647 454.837219,98.416786 450.017609,86.461494 
	C450.017609,99.396156 450.017609,112.330811 450.017609,125.635223 
	C446.083862,125.635223 442.516754,125.635223 438.597717,125.635223 
	C438.597717,107.353249 438.597717,88.976715 438.597717,69.994682 
	C444.113007,69.994682 449.553223,69.859871 454.975342,70.113060 
	C456.009094,70.161339 457.498993,71.554878 457.885620,72.644531 
	C462.213928,84.842979 466.367126,97.103539 470.565338,109.341232 
	C474.602509,97.658546 478.811127,85.894279 482.673676,74.017464 
	C483.666199,70.965614 484.933411,69.708672 488.206787,69.918556 
	C492.673950,70.204987 497.173279,69.990036 502.061157,69.990036 
	C502.061157,88.578392 502.061157,106.936981 502.061157,125.654221 
	C498.257904,125.654221 494.371094,125.654221 489.659790,125.654221 
	C489.659790,113.862778 489.659790,101.971268 489.818024,89.230179 
	C489.976257,86.621223 489.976257,84.861839 489.976257,83.102463 
	C489.776855,83.067101 489.577454,83.031731 489.378052,82.996368 
	C488.921326,84.999382 488.464569,87.002396 488.007812,89.005417 
z"/>
<path fill="#1B7BF2" opacity="1.000000" stroke="none" 
	d="
M54.889851,126.008194 
	C51.799797,126.008339 49.184654,126.008339 46.231636,126.008339 
	C46.231636,118.232109 46.231636,110.960182 46.231636,103.298264 
	C38.510357,103.298264 31.117203,103.298264 23.237904,103.298264 
	C23.237904,110.514488 23.237904,117.920525 23.237904,125.663589 
	C18.861601,125.663589 14.955045,125.663589 10.646227,125.663589 
	C10.646227,107.405373 10.646227,89.044609 10.646227,70.336319 
	C14.515652,70.336319 18.418673,70.336319 22.835836,70.336319 
	C22.835836,77.279099 22.835836,84.340935 22.835836,91.692322 
	C30.729504,91.692322 38.118870,91.692322 45.889622,91.692322 
	C45.889622,84.692986 45.889622,77.767204 45.889622,70.418007 
	C50.290291,70.418007 54.328415,70.418007 59.008381,70.418007 
	C59.008381,73.363777 59.008392,76.466171 59.008377,79.568573 
	C59.008316,93.716980 58.947365,107.865883 59.060116,122.013390 
	C59.082363,124.804588 58.718609,126.628098 54.889851,126.008194 
z"/>
<path fill="#1979F2" opacity="1.000000" stroke="none" 
	d="
M240.865479,85.731766 
	C245.831894,87.551384 248.465408,91.245087 248.671646,95.685745 
	C249.132111,105.600563 248.815552,115.551468 248.815552,125.733742 
	C244.936020,125.733742 241.033096,125.733742 236.681976,125.733742 
	C236.681976,119.015564 236.699524,112.560226 236.670807,106.105103 
	C236.662689,104.278824 236.634384,102.439087 236.412979,100.630287 
	C236.015717,97.384659 234.742630,94.904320 230.910568,94.731880 
	C227.193863,94.564621 224.534470,96.259880 223.901642,99.746506 
	C223.167358,103.792206 223.154953,107.985687 223.032074,112.121056 
	C222.899658,116.576828 223.002136,121.039574 223.002136,125.744705 
	C218.843307,125.744705 215.097290,125.744705 211.014725,125.744705 
	C211.014725,106.266975 211.014725,86.900902 211.014725,67.265518 
	C214.880600,67.265518 218.635498,67.265518 222.888504,67.265518 
	C222.888504,75.007645 222.888504,82.716484 222.888504,91.668137 
	C228.134445,85.429077 233.859695,83.879623 240.865479,85.731766 
z"/>
<path fill="#1E7CF2" opacity="1.000000" stroke="none" 
	d="
M511.891052,100.086334 
	C515.379700,88.640182 524.225830,83.587547 537.493896,85.113548 
	C547.146545,86.223724 554.152527,93.672295 554.745422,103.454826 
	C555.470215,115.415001 549.841980,123.787567 539.282532,126.457237 
	C521.348999,130.991226 508.278290,118.641708 511.891052,100.086334 
M525.233887,112.916451 
	C527.465820,117.218468 531.317139,117.752319 535.485352,117.071434 
	C539.621033,116.395844 541.095642,113.117477 541.588074,109.528198 
	C541.941467,106.952820 541.839783,104.236473 541.453857,101.655876 
	C540.815125,97.384804 538.369934,94.861794 533.752808,94.725479 
	C528.914673,94.582642 525.448059,96.542000 524.749512,101.388626 
	C524.244568,104.891785 524.846008,108.554420 525.233887,112.916451 
z"/>
<path fill="#1E7CF2" opacity="1.000000" stroke="none" 
	d="
M662.219055,108.651047 
	C661.772156,89.526665 678.724243,78.833870 695.479187,87.218895 
	C703.068604,91.016998 707.217529,100.302773 705.554199,109.767448 
	C703.899963,119.180092 697.529358,125.563835 688.509399,126.847458 
	C674.115417,128.895844 664.952393,122.698639 662.219055,108.651047 
M684.436401,117.252739 
	C686.376648,116.504845 688.771240,116.237808 690.169495,114.916397 
	C693.944946,111.348381 694.080872,101.022186 690.517334,97.264198 
	C689.369263,96.053452 687.485779,95.157181 685.815857,94.892677 
	C679.673462,93.919777 675.867920,97.163208 675.048340,103.698120 
	C674.032959,111.794441 676.819580,116.218094 684.436401,117.252739 
z"/>
<path fill="#1B7AF2" opacity="1.000000" stroke="none" 
	d="
M562.539246,120.765778 
	C562.571716,109.301994 562.600830,98.311798 562.652283,87.321709 
	C562.653748,87.019157 562.895081,86.717728 563.114868,86.205170 
	C566.807678,86.205170 570.588318,86.205170 574.778137,86.205170 
	C574.896362,87.614075 575.015259,89.031029 575.148438,90.618797 
	C575.606750,90.487808 576.071594,90.450989 576.430908,90.237022 
	C579.235779,88.567039 581.827209,86.019577 584.847473,85.327797 
	C593.858093,83.263985 600.198547,87.463669 600.994934,96.747444 
	C601.812134,106.273804 601.176147,115.924812 601.176147,125.764709 
	C597.302795,125.764709 593.395813,125.764709 588.985107,125.764709 
	C588.985107,117.964752 589.308960,110.330803 588.807373,102.751480 
	C588.634705,100.142906 586.908508,97.085564 584.915710,95.362450 
	C583.778259,94.378975 579.739746,94.866585 578.659241,96.117989 
	C576.771240,98.304565 575.458923,101.519783 575.161560,104.432205 
	C574.623108,109.706581 575.008057,115.075226 575.007568,120.404518 
	C575.007385,122.049530 575.007507,123.694542 575.007507,125.672783 
	C570.852173,125.672783 566.958923,125.672783 562.756653,125.672783 
	C562.683167,124.176392 562.611084,122.707886 562.539246,120.765778 
z"/>
<path fill="#1F7CF2" opacity="1.000000" stroke="none" 
	d="
M313.896667,84.985413 
	C324.647705,85.477531 329.787994,89.648483 330.515656,99.542084 
	C331.146179,108.114883 330.646759,116.770805 330.646759,126.168968 
	C326.144226,124.850807 321.153839,128.574295 317.942322,123.636299 
	C314.385223,124.735771 310.758026,126.555656 307.005829,126.866585 
	C299.895386,127.455780 295.193970,123.474701 294.189148,117.067856 
	C293.117920,110.237312 296.567749,104.216042 303.248810,102.383369 
	C308.025238,101.073158 313.027649,100.586876 317.930176,99.738289 
	C318.147919,92.613808 314.606262,92.101974 298.687012,96.962502 
	C296.993439,88.095566 297.123138,87.814209 306.043732,85.820427 
	C308.451263,85.282341 310.971741,85.249725 313.896667,84.985413 
M315.835693,116.523636 
	C318.404022,113.909233 319.471527,110.904602 318.465027,107.064415 
	C315.140167,107.684349 311.838104,107.741997 309.112610,109.024704 
	C307.563171,109.753922 305.909058,112.697838 306.223022,114.257767 
	C306.531464,115.790245 309.121399,117.217819 310.999176,117.945107 
	C312.096680,118.370178 313.760162,117.333954 315.835693,116.523636 
z"/>
<path fill="#1F7DF2" opacity="1.000000" stroke="none" 
	d="
M407.756409,105.850876 
	C408.197815,109.361153 406.514709,109.844246 403.909271,109.799194 
	C396.764618,109.675652 389.616394,109.756592 382.447937,109.756592 
	C383.090027,118.383751 389.838348,120.153137 403.639343,115.653610 
	C404.738190,124.955589 403.923492,126.124725 394.814758,126.824509 
	C391.186707,127.103249 387.413177,127.216896 383.869965,126.543037 
	C373.802124,124.628296 368.217346,115.897766 369.178253,104.291611 
	C370.070831,93.510925 377.544189,85.558319 387.295807,85.012230 
	C400.564941,84.269150 407.619904,91.302002 407.756409,105.850876 
M385.002380,95.211113 
	C383.845947,97.223801 382.689484,99.236488 381.214813,101.803009 
	C386.834351,101.803009 391.288361,101.803009 395.743256,101.803009 
	C395.661743,94.365479 392.493134,92.202797 385.002380,95.211113 
z"/>
<path fill="#1D7BF2" opacity="1.000000" stroke="none" 
	d="
M147.010986,111.996162 
	C147.010986,116.796501 147.010986,121.099129 147.010986,125.703110 
	C143.114548,125.703110 139.524170,125.703110 135.542572,125.703110 
	C135.315674,124.737785 135.040390,123.566521 134.666504,121.975822 
	C133.615784,122.848602 132.795670,123.597610 131.908157,124.255745 
	C127.126381,127.801720 120.227348,128.087875 115.513710,124.962051 
	C111.429657,122.253731 109.697006,116.903931 111.051651,111.173500 
	C112.265968,106.036728 115.876953,103.267303 120.685905,102.147820 
	C125.351891,101.061615 130.138641,100.494118 134.865448,99.699974 
	C134.005386,92.164742 127.575256,91.448784 115.465431,97.422157 
	C112.792480,89.782883 113.795219,87.841339 121.404610,86.043045 
	C123.018761,85.661583 124.649910,85.261559 126.295006,85.115631 
	C140.913818,83.818954 147.004822,89.394440 147.010818,104.006973 
	C147.011856,106.504135 147.010971,109.001289 147.010986,111.996162 
M131.356384,117.142548 
	C134.965363,114.725342 135.873962,111.453117 134.684982,107.408569 
	C124.126343,108.540810 121.451439,109.940697 122.433418,114.119133 
	C123.507179,118.688095 126.957695,118.639832 131.356384,117.142548 
z"/>
<path fill="#1E7CF2" opacity="1.000000" stroke="none" 
	d="
M104.585785,94.626358 
	C105.510155,99.621254 106.249191,104.278618 107.097267,109.623154 
	C97.759949,109.623154 89.539062,109.623154 81.306244,109.623154 
	C81.626793,118.362312 88.847313,120.218529 102.398094,115.580040 
	C103.858894,124.439514 102.747574,126.058250 93.835838,126.795624 
	C90.055428,127.108421 86.125687,127.195831 82.421570,126.520454 
	C74.854385,125.140724 69.422531,119.348732 68.326111,111.589973 
	C67.024315,102.377846 68.427826,93.783257 76.881432,88.209282 
	C83.833870,83.625114 91.383919,83.502838 98.530174,87.728256 
	C100.938133,89.152031 102.468826,92.059471 104.585785,94.626358 
M92.091461,101.998482 
	C92.958862,101.274452 94.580185,100.538391 94.568848,99.828377 
	C94.504929,95.822731 91.569664,93.215431 87.834778,93.438019 
	C83.922447,93.671181 81.385223,96.850060 81.242599,101.999168 
	C84.560753,101.999168 87.872887,101.999168 92.091461,101.998482 
z"/>
<path fill="#1D7CF2" opacity="1.000000" stroke="none" 
	d="
M196.688934,116.380836 
	C199.096756,116.772560 201.189209,116.873322 203.625427,116.990631 
	C203.484283,116.779938 203.825150,117.055786 203.791016,117.272629 
	C203.244995,120.742691 206.286209,125.602669 199.958755,126.833763 
	C191.685547,128.443405 184.628159,125.642899 183.175400,119.189621 
	C182.098618,114.406502 182.337646,109.315552 182.114975,104.356148 
	C181.982437,101.404350 182.090683,98.441750 182.090683,95.198036 
	C179.894211,95.080193 178.119797,94.984993 175.940109,94.868057 
	C175.940109,92.103119 175.940109,89.400063 175.940109,86.302544 
	C177.712936,86.125542 179.608673,85.936264 181.888397,85.708649 
	C182.007217,83.098885 182.125229,80.506821 182.264847,77.440201 
	C186.293472,76.301025 190.350876,75.153725 194.836395,73.885353 
	C194.836395,78.038811 194.836395,81.664009 194.836395,85.823456 
	C197.855972,85.823456 200.580490,85.823456 203.605377,85.823456 
	C203.605377,89.070015 203.605377,91.784973 203.605377,94.870140 
	C200.847412,94.870140 198.240341,94.870140 194.283646,94.870140 
	C195.009857,102.243668 195.691711,109.166771 196.688934,116.380836 
z"/>
<path fill="#1C7BF2" opacity="1.000000" stroke="none" 
	d="
M652.691284,126.944771 
	C640.384399,127.098343 636.653748,123.623970 636.290222,111.812012 
	C636.122681,106.366943 636.261658,100.912445 636.261658,95.202843 
	C633.995605,95.070145 632.235657,94.967094 630.243164,94.850410 
	C630.243164,91.872246 630.243164,89.140160 630.243164,86.146660 
	C632.225952,86.036606 633.989502,85.938721 635.684570,85.844635 
	C637.181213,76.542839 637.181213,76.542839 648.942200,74.217003 
	C648.942200,78.032875 648.942200,81.765587 648.942200,85.818115 
	C652.025146,85.818115 654.633850,85.818115 657.625977,85.818115 
	C657.625977,88.860146 657.625977,91.586990 657.625977,94.828262 
	C655.054810,94.828262 652.322388,94.828262 649.056030,94.828262 
	C649.056030,100.926102 648.788696,106.546600 649.138000,112.128510 
	C649.433777,116.855072 651.466553,117.758003 658.010010,116.741043 
	C657.190125,120.617256 660.806030,126.320282 652.691284,126.944771 
z"/>
<path fill="#1E7CF2" opacity="1.000000" stroke="none" 
	d="
M274.426697,116.012589 
	C279.455750,116.190865 284.115021,116.190865 288.916779,116.190865 
	C290.969055,125.334999 289.112915,127.121994 276.927856,127.012146 
	C267.785553,126.929718 260.909576,122.618164 257.896790,115.078758 
	C254.552292,106.709221 256.552673,96.436974 262.874542,90.629173 
	C269.830139,84.239189 278.195984,84.041122 286.787231,85.867653 
	C287.871124,86.098099 289.107483,87.984131 289.349457,89.276115 
	C289.768951,91.515831 289.465912,93.890877 289.465912,96.535187 
	C282.381958,94.593605 275.315582,92.279488 270.686188,100.154701 
	C267.750641,105.148476 269.350525,111.629494 274.426697,116.012589 
z"/>
<path fill="#1778F2" opacity="1.000000" stroke="none" 
	d="
M168.998978,104.999840 
	C168.998978,112.134232 168.998978,118.768669 168.998978,125.698608 
	C164.934662,125.698608 161.190811,125.698608 157.063980,125.698608 
	C157.063980,106.335724 157.063980,86.968536 157.063980,67.300003 
	C160.804062,67.300003 164.562164,67.300003 168.998978,67.300003 
	C168.998978,79.659897 168.998978,92.079887 168.998978,104.999840 
z"/>
<path fill="#217EF3" opacity="1.000000" stroke="none" 
	d="
M722.687988,85.981094 
	C724.421387,87.291939 725.704529,88.601967 727.150696,90.078415 
	C729.633423,86.274513 733.596863,83.875031 739.458557,85.449074 
	C739.458557,89.096146 739.458557,92.692139 739.458557,96.425949 
	C739.040100,96.527916 738.566833,96.796135 738.157043,96.720490 
	C730.190979,95.249779 726.163208,98.410141 725.959290,106.600800 
	C725.802795,112.886360 725.928101,119.178940 725.928101,125.739517 
	C721.579041,125.739517 717.683105,125.739517 713.510559,125.739517 
	C713.510559,112.623337 713.510559,99.702248 713.510559,85.980286 
	C716.409912,85.980286 719.323792,85.980286 722.687988,85.981094 
z"/>
<path fill="#1F7CF2" opacity="1.000000" stroke="none" 
	d="
M357.327332,97.063599 
	C355.566833,100.438591 353.308044,103.557091 352.949097,106.880768 
	C352.293549,112.950653 352.762665,119.141998 352.762665,125.646805 
	C348.535309,125.646805 344.643066,125.646805 340.415741,125.646805 
	C340.415741,112.641060 340.415741,99.590347 340.415741,86.261047 
	C344.297882,86.261047 348.071167,86.261047 352.246063,86.261047 
	C352.491058,87.463379 352.772980,88.846893 353.189362,90.890244 
	C356.509216,86.575317 360.260773,83.618233 366.142181,85.564194 
	C366.142181,89.162689 366.142181,92.873863 366.142181,96.150726 
	C363.116791,96.418648 360.401245,96.659134 357.327332,97.063599 
z"/>
<path fill="#1778F2" opacity="1.000000" stroke="none" 
	d="
M623.313721,118.946991 
	C623.313843,121.417946 623.313843,123.394913 623.313843,125.684471 
	C619.234619,125.684471 615.475220,125.684471 611.355957,125.684471 
	C611.355957,112.740440 611.355957,99.688507 611.355957,86.317413 
	C615.031616,86.317413 618.773865,86.317413 623.313660,86.317413 
	C623.313660,96.987549 623.313660,107.720276 623.313721,118.946991 
z"/>
<path fill="#1F7DF2" opacity="1.000000" stroke="none" 
	d="
M623.937561,70.973434 
	C623.114624,73.898949 622.878174,77.594002 621.041565,78.752571 
	C619.058105,80.003876 615.207153,79.653816 612.881592,78.530617 
	C611.307983,77.770569 609.995056,74.295807 610.340515,72.350525 
	C610.684265,70.414894 612.951904,68.015305 614.899536,67.348465 
	C618.291748,66.187042 621.825500,66.876251 623.937561,70.973434 
z"/>
<path fill="#A7CCFA" opacity="1.000000" stroke="none" 
	d="
M488.283356,88.982986 
	C488.464569,87.002396 488.921326,84.999382 489.378052,82.996368 
	C489.577454,83.031731 489.776855,83.067101 489.976257,83.102463 
	C489.976257,84.861839 489.976257,86.621223 489.810486,88.772644 
	C489.282776,89.096642 488.920837,89.028603 488.283356,88.982986 
z"/>
<path fill="#FBFDFF" opacity="1.000000" stroke="none" 
	d="
M525.093994,112.531189 
	C524.846008,108.554420 524.244568,104.891785 524.749512,101.388626 
	C525.448059,96.542000 528.914673,94.582642 533.752808,94.725479 
	C538.369934,94.861794 540.815125,97.384804 541.453857,101.655876 
	C541.839783,104.236473 541.941467,106.952820 541.588074,109.528198 
	C541.095642,113.117477 539.621033,116.395844 535.485352,117.071434 
	C531.317139,117.752319 527.465820,117.218468 525.093994,112.531189 
z"/>
<path fill="#FBFDFF" opacity="1.000000" stroke="none" 
	d="
M684.011597,117.252579 
	C676.819580,116.218094 674.032959,111.794441 675.048340,103.698120 
	C675.867920,97.163208 679.673462,93.919777 685.815857,94.892677 
	C687.485779,95.157181 689.369263,96.053452 690.517334,97.264198 
	C694.080872,101.022186 693.944946,111.348381 690.169495,114.916397 
	C688.771240,116.237808 686.376648,116.504845 684.011597,117.252579 
z"/>
<path fill="#F7FAFF" opacity="1.000000" stroke="none" 
	d="
M315.502350,116.739388 
	C313.760162,117.333954 312.096680,118.370178 310.999176,117.945107 
	C309.121399,117.217819 306.531464,115.790245 306.223022,114.257767 
	C305.909058,112.697838 307.563171,109.753922 309.112610,109.024704 
	C311.838104,107.741997 315.140167,107.684349 318.465027,107.064415 
	C319.471527,110.904602 318.404022,113.909233 315.502350,116.739388 
z"/>
<path fill="#FBFDFF" opacity="1.000000" stroke="none" 
	d="
M385.329163,94.971184 
	C392.493134,92.202797 395.661743,94.365479 395.743256,101.803009 
	C391.288361,101.803009 386.834351,101.803009 381.214813,101.803009 
	C382.689484,99.236488 383.845947,97.223801 385.329163,94.971184 
z"/>
<path fill="#F5F9FE" opacity="1.000000" stroke="none" 
	d="
M130.995575,117.315979 
	C126.957695,118.639832 123.507179,118.688095 122.433418,114.119133 
	C121.451439,109.940697 124.126343,108.540810 134.684982,107.408569 
	C135.873962,111.453117 134.965363,114.725342 130.995575,117.315979 
z"/>
<path fill="#F8FBFF" opacity="1.000000" stroke="none" 
	d="
M91.638245,101.998825 
	C87.872887,101.999168 84.560753,101.999168 81.242599,101.999168 
	C81.385223,96.850060 83.922447,93.671181 87.834778,93.438019 
	C91.569664,93.215431 94.504929,95.822731 94.568848,99.828377 
	C94.580185,100.538391 92.958862,101.274452 91.638245,101.998825 
z"/>
</svg>